# MagicaVoxel @ Ephtracy

# group
o 

# material
mtllib door.mtl
usemtl palette

# normals
vn -1 0 0
vn 1 0 0
vn 0 0 1
vn 0 0 -1
vn 0 -1 0
vn 0 1 0

# texcoords
vt 0.00585938 0.5
vt 0.0527344 0.5
vt 0.306641 0.5
vt 0.826172 0.5
vt 0.958984 0.5
vt 0.994141 0.5

# verts
v 0.1 2 0
v 0.1 2 -0.1
v 0.1 4.4 0
v 0.1 4.4 -0.1
v 0.2 4.4 0
v 0.2 4.4 -0.1
v 0.2 5 0
v 0.2 5 -0.1
v 0.3 5 0
v 0.3 5 -0.1
v 0.3 5.5 0
v 0.3 5.5 -0.1
v 0.5 5.5 0
v 0.5 5.5 -0.1
v 0.5 5.8 0
v 0.5 5.8 -0.1
v 0.7 5.8 0
v 0.7 5.8 -0.1
v 0.7 6 0
v 0.7 6 -0.1
v 3.3 5.8 0
v 3.3 5.8 -0.1
v 3.3 6 0
v 3.3 6 -0.1
v 3.5 5.5 0
v 3.5 5.5 -0.1
v 3.5 5.6 0
v 3.5 5.6 -0.1
v 3.5 5.8 0
v 3.5 5.8 -0.1
v 3.7 5 0
v 3.7 5 -0.1
v 3.7 5.5 0
v 3.7 5.5 -0.1
v 3.8 4.4 0
v 3.8 4.4 -0.1
v 3.8 5 0
v 3.8 5 -0.1
v 3.9 2 0
v 3.9 2 -0.1
v 3.9 4.4 0
v 3.9 4.4 -0.1
v 0.1 2 0
v 0.1 4.4 0
v 0.2 2 0
v 0.2 4 0
v 0.2 4.4 0
v 0.2 5 0
v 0.3 4 0
v 0.3 4.9 0
v 0.3 5 0
v 0.3 5.5 0
v 0.4 2 0
v 0.4 3.9 0
v 0.4 4.9 0
v 0.4 5.5 0
v 0.5 5.5 0
v 0.5 5.8 0
v 0.6 2 0
v 0.6 2.5 0
v 0.6 3.9 0
v 0.6 4.5 0
v 0.7 2 0
v 0.7 2.1 0
v 0.7 2.5 0
v 0.7 3.2 0
v 0.7 3.8 0
v 0.7 3.9 0
v 0.7 4.5 0
v 0.7 5.2 0
v 0.7 5.8 0
v 0.7 6 0
v 0.8 3.2 0
v 0.8 3.6 0
v 0.8 3.8 0
v 0.8 3.9 0
v 0.8 4.3 0
v 0.8 4.9 0
v 0.8 5.2 0
v 0.8 5.4 0
v 0.9 3.6 0
v 0.9 4.3 0
v 1 2 0
v 1 2.1 0
v 1 2.2 0
v 1 4.9 0
v 1 5.2 0
v 1 5.4 0
v 1 5.6 0
v 1.1 2.2 0
v 1.1 2.3 0
v 1.2 2.3 0
v 1.2 2.4 0
v 1.2 5.2 0
v 1.2 5.6 0
v 1.2 5.8 0
v 1.3 2.4 0
v 1.3 2.5 0
v 1.4 2.5 0
v 1.4 2.6 0
v 1.5 2.6 0
v 1.5 2.7 0
v 1.5 3 0
v 1.5 3.2 0
v 1.6 2.7 0
v 1.6 2.8 0
v 1.6 3.2 0
v 1.6 3.3 0
v 1.7 2.8 0
v 1.7 2.9 0
v 1.7 3.3 0
v 1.7 3.4 0
v 1.8 2.9 0
v 1.8 3 0
v 1.8 3.4 0
v 1.8 3.5 0
v 1.9 3.5 0
v 1.9 3.6 0
v 2 3.6 0
v 2 3.7 0
v 2.1 3.6 0
v 2.1 3.7 0
v 2.2 3.5 0
v 2.2 3.6 0
v 2.3 3.4 0
v 2.3 3.5 0
v 2.4 2.9 0
v 2.4 3 0
v 2.4 3.3 0
v 2.4 3.4 0
v 2.5 2.8 0
v 2.5 2.9 0
v 2.5 3.2 0
v 2.5 3.3 0
v 2.6 2.7 0
v 2.6 2.8 0
v 2.6 3 0
v 2.6 3.2 0
v 2.7 2.6 0
v 2.7 2.7 0
v 2.8 2.5 0
v 2.8 2.6 0
v 2.9 2.4 0
v 2.9 2.5 0
v 2.9 5.4 0
v 2.9 5.6 0
v 2.9 5.8 0
v 3 2.3 0
v 3 2.4 0
v 3 5.8 0
v 3 6 0
v 3.1 2.2 0
v 3.1 2.3 0
v 3.1 5.2 0
v 3.1 5.4 0
v 3.1 5.6 0
v 3.2 2 0
v 3.2 2.1 0
v 3.2 2.2 0
v 3.3 4.1 0
v 3.3 5.2 0
v 3.3 5.4 0
v 3.3 5.6 0
v 3.3 5.8 0
v 3.3 6 0
v 3.4 3.8 0
v 3.4 4.1 0
v 3.4 4.5 0
v 3.4 5.2 0
v 3.5 2 0
v 3.5 2.1 0
v 3.5 3.8 0
v 3.5 3.9 0
v 3.5 4.5 0
v 3.5 5.5 0
v 3.5 5.6 0
v 3.5 5.8 0
v 3.7 2 0
v 3.7 3.9 0
v 3.7 5 0
v 3.7 5.5 0
v 3.8 4.4 0
v 3.8 5 0
v 3.9 2 0
v 3.9 4.4 0
v 0.1 2 -0.1
v 0.1 4.4 -0.1
v 0.2 2 -0.1
v 0.2 4 -0.1
v 0.2 4.4 -0.1
v 0.2 5 -0.1
v 0.3 4 -0.1
v 0.3 4.9 -0.1
v 0.3 5 -0.1
v 0.3 5.5 -0.1
v 0.4 2 -0.1
v 0.4 3.9 -0.1
v 0.4 4.9 -0.1
v 0.4 5.5 -0.1
v 0.5 5.5 -0.1
v 0.5 5.8 -0.1
v 0.6 2 -0.1
v 0.6 2.5 -0.1
v 0.6 3.9 -0.1
v 0.6 4.5 -0.1
v 0.7 2 -0.1
v 0.7 2.1 -0.1
v 0.7 2.5 -0.1
v 0.7 3.2 -0.1
v 0.7 3.8 -0.1
v 0.7 3.9 -0.1
v 0.7 4.5 -0.1
v 0.7 5.2 -0.1
v 0.7 5.8 -0.1
v 0.7 6 -0.1
v 0.8 3.2 -0.1
v 0.8 3.6 -0.1
v 0.8 3.8 -0.1
v 0.8 3.9 -0.1
v 0.8 4.3 -0.1
v 0.8 4.9 -0.1
v 0.8 5.2 -0.1
v 0.8 5.4 -0.1
v 0.9 3.6 -0.1
v 0.9 4.3 -0.1
v 1 2 -0.1
v 1 2.1 -0.1
v 1 2.2 -0.1
v 1 4.9 -0.1
v 1 5.2 -0.1
v 1 5.4 -0.1
v 1 5.6 -0.1
v 1.1 2.2 -0.1
v 1.1 2.3 -0.1
v 1.2 2.3 -0.1
v 1.2 2.4 -0.1
v 1.2 5.2 -0.1
v 1.2 5.6 -0.1
v 1.2 5.8 -0.1
v 1.3 2.4 -0.1
v 1.3 2.5 -0.1
v 1.4 2.5 -0.1
v 1.4 2.6 -0.1
v 1.5 2.6 -0.1
v 1.5 2.7 -0.1
v 1.5 3 -0.1
v 1.5 3.2 -0.1
v 1.6 2.7 -0.1
v 1.6 2.8 -0.1
v 1.6 3.2 -0.1
v 1.6 3.3 -0.1
v 1.7 2.8 -0.1
v 1.7 2.9 -0.1
v 1.7 3.3 -0.1
v 1.7 3.4 -0.1
v 1.8 2.9 -0.1
v 1.8 3 -0.1
v 1.8 3.4 -0.1
v 1.8 3.5 -0.1
v 1.9 3.5 -0.1
v 1.9 3.6 -0.1
v 2 3.6 -0.1
v 2 3.7 -0.1
v 2.1 3.6 -0.1
v 2.1 3.7 -0.1
v 2.2 3.5 -0.1
v 2.2 3.6 -0.1
v 2.3 3.4 -0.1
v 2.3 3.5 -0.1
v 2.4 2.9 -0.1
v 2.4 3 -0.1
v 2.4 3.3 -0.1
v 2.4 3.4 -0.1
v 2.5 2.8 -0.1
v 2.5 2.9 -0.1
v 2.5 3.2 -0.1
v 2.5 3.3 -0.1
v 2.6 2.7 -0.1
v 2.6 2.8 -0.1
v 2.6 3 -0.1
v 2.6 3.2 -0.1
v 2.7 2.6 -0.1
v 2.7 2.7 -0.1
v 2.8 2.5 -0.1
v 2.8 2.6 -0.1
v 2.9 2.4 -0.1
v 2.9 2.5 -0.1
v 2.9 5.4 -0.1
v 2.9 5.6 -0.1
v 2.9 5.8 -0.1
v 3 2.3 -0.1
v 3 2.4 -0.1
v 3 5.8 -0.1
v 3 6 -0.1
v 3.1 2.2 -0.1
v 3.1 2.3 -0.1
v 3.1 5.2 -0.1
v 3.1 5.4 -0.1
v 3.1 5.6 -0.1
v 3.2 2 -0.1
v 3.2 2.1 -0.1
v 3.2 2.2 -0.1
v 3.3 4.1 -0.1
v 3.3 5.2 -0.1
v 3.3 5.4 -0.1
v 3.3 5.6 -0.1
v 3.3 5.8 -0.1
v 3.3 6 -0.1
v 3.4 3.8 -0.1
v 3.4 4.1 -0.1
v 3.4 4.5 -0.1
v 3.4 5.2 -0.1
v 3.5 2 -0.1
v 3.5 2.1 -0.1
v 3.5 3.8 -0.1
v 3.5 3.9 -0.1
v 3.5 4.5 -0.1
v 3.5 5.5 -0.1
v 3.5 5.6 -0.1
v 3.5 5.8 -0.1
v 3.7 2 -0.1
v 3.7 3.9 -0.1
v 3.7 5 -0.1
v 3.7 5.5 -0.1
v 3.8 4.4 -0.1
v 3.8 5 -0.1
v 3.9 2 -0.1
v 3.9 4.4 -0.1
v 0.1 2 0
v 0.2 2 0
v 0.4 2 0
v 0.6 2 0
v 0.7 2 0
v 1 2 0
v 3.2 2 0
v 3.5 2 0
v 3.7 2 0
v 3.9 2 0
v 0.1 2 -0.1
v 0.2 2 -0.1
v 0.4 2 -0.1
v 0.6 2 -0.1
v 0.7 2 -0.1
v 1 2 -0.1
v 3.2 2 -0.1
v 3.5 2 -0.1
v 3.7 2 -0.1
v 3.9 2 -0.1
v 0.1 4.4 0
v 0.2 4.4 0
v 3.8 4.4 0
v 3.9 4.4 0
v 0.1 4.4 -0.1
v 0.2 4.4 -0.1
v 3.8 4.4 -0.1
v 3.9 4.4 -0.1
v 0.2 5 0
v 0.3 5 0
v 3.7 5 0
v 3.8 5 0
v 0.2 5 -0.1
v 0.3 5 -0.1
v 3.7 5 -0.1
v 3.8 5 -0.1
v 0.3 5.5 0
v 0.4 5.5 0
v 0.5 5.5 0
v 3.5 5.5 0
v 3.7 5.5 0
v 0.3 5.5 -0.1
v 0.4 5.5 -0.1
v 0.5 5.5 -0.1
v 3.5 5.5 -0.1
v 3.7 5.5 -0.1
v 0.5 5.8 0
v 0.7 5.8 0
v 3.3 5.8 0
v 3.5 5.8 0
v 0.5 5.8 -0.1
v 0.7 5.8 -0.1
v 3.3 5.8 -0.1
v 3.5 5.8 -0.1
v 0.7 6 0
v 3 6 0
v 3.3 6 0
v 0.7 6 -0.1
v 3 6 -0.1
v 3.3 6 -0.1

# faces
f 3/4/1 2/4/1 1/4/1
f 4/4/1 2/4/1 3/4/1
f 7/4/1 6/4/1 5/4/1
f 8/4/1 6/4/1 7/4/1
f 11/4/1 10/4/1 9/4/1
f 12/4/1 10/4/1 11/4/1
f 15/3/1 14/3/1 13/3/1
f 16/3/1 14/3/1 15/3/1
f 19/3/1 18/3/1 17/3/1
f 20/3/1 18/3/1 19/3/1
f 21/4/2 22/4/2 23/4/2
f 23/4/2 22/4/2 24/4/2
f 25/3/2 26/3/2 27/3/2
f 27/3/2 26/3/2 28/3/2
f 27/4/2 28/4/2 29/4/2
f 29/4/2 28/4/2 30/4/2
f 31/3/2 32/3/2 33/3/2
f 33/3/2 32/3/2 34/3/2
f 35/3/2 36/3/2 37/3/2
f 37/3/2 36/3/2 38/3/2
f 39/3/2 40/3/2 41/3/2
f 41/3/2 40/3/2 42/3/2
f 45/4/3 44/4/3 43/4/3
f 46/4/3 44/4/3 45/4/3
f 47/4/3 44/4/3 46/4/3
f 49/3/3 46/3/3 45/3/3
f 49/4/3 48/4/3 47/4/3
f 49/4/3 47/4/3 46/4/3
f 50/4/3 48/4/3 49/4/3
f 51/4/3 48/4/3 50/4/3
f 53/3/3 49/3/3 45/3/3
f 53/3/3 50/3/3 49/3/3
f 54/3/3 50/3/3 53/3/3
f 55/4/3 52/4/3 51/4/3
f 55/3/3 50/3/3 54/3/3
f 55/4/3 51/4/3 50/4/3
f 56/4/3 52/4/3 55/4/3
f 57/3/3 55/3/3 54/3/3
f 57/3/3 56/3/3 55/3/3
f 59/1/3 54/1/3 53/1/3
f 60/1/3 54/1/3 59/1/3
f 61/3/3 58/3/3 57/3/3
f 61/1/3 54/1/3 60/1/3
f 61/3/3 57/3/3 54/3/3
f 62/3/3 58/3/3 61/3/3
f 63/5/3 60/5/3 59/5/3
f 64/5/3 60/5/3 63/5/3
f 65/1/3 61/1/3 60/1/3
f 65/5/3 60/5/3 64/5/3
f 65/1/3 62/1/3 61/1/3
f 66/1/3 62/1/3 65/1/3
f 67/1/3 62/1/3 66/1/3
f 68/1/3 62/1/3 67/1/3
f 69/3/3 58/3/3 62/3/3
f 69/1/3 62/1/3 68/1/3
f 70/3/3 58/3/3 69/3/3
f 71/3/3 58/3/3 70/3/3
f 73/5/3 65/5/3 64/5/3
f 73/5/3 66/5/3 65/5/3
f 73/1/3 67/1/3 66/1/3
f 74/1/3 67/1/3 73/1/3
f 75/5/3 68/5/3 67/5/3
f 75/1/3 67/1/3 74/1/3
f 76/1/3 70/1/3 69/1/3
f 76/5/3 68/5/3 75/5/3
f 76/1/3 69/1/3 68/1/3
f 77/1/3 70/1/3 76/1/3
f 78/1/3 70/1/3 77/1/3
f 79/3/3 72/3/3 71/3/3
f 79/1/3 70/1/3 78/1/3
f 79/3/3 71/3/3 70/3/3
f 80/3/3 72/3/3 79/3/3
f 81/5/3 74/5/3 73/5/3
f 81/1/3 77/1/3 76/1/3
f 81/1/3 75/1/3 74/1/3
f 81/1/3 76/1/3 75/1/3
f 82/5/3 78/5/3 77/5/3
f 82/1/3 77/1/3 81/1/3
f 83/6/3 64/6/3 63/6/3
f 84/5/3 81/5/3 73/5/3
f 84/6/3 64/6/3 83/6/3
f 84/5/3 73/5/3 64/5/3
f 84/5/3 82/5/3 81/5/3
f 85/5/3 82/5/3 84/5/3
f 86/5/3 78/5/3 82/5/3
f 86/5/3 82/5/3 85/5/3
f 86/1/3 80/1/3 79/1/3
f 86/1/3 79/1/3 78/1/3
f 87/1/3 80/1/3 86/1/3
f 88/3/3 72/3/3 80/3/3
f 88/1/3 80/1/3 87/1/3
f 89/3/3 72/3/3 88/3/3
f 90/5/3 87/5/3 86/5/3
f 90/2/3 85/2/3 84/2/3
f 90/2/3 84/2/3 83/2/3
f 90/5/3 86/5/3 85/5/3
f 91/5/3 87/5/3 90/5/3
f 92/2/3 91/2/3 90/2/3
f 92/5/3 87/5/3 91/5/3
f 93/5/3 87/5/3 92/5/3
f 94/1/3 89/1/3 88/1/3
f 94/5/3 87/5/3 93/5/3
f 94/1/3 88/1/3 87/1/3
f 95/3/3 72/3/3 89/3/3
f 95/1/3 89/1/3 94/1/3
f 96/3/3 72/3/3 95/3/3
f 97/5/3 94/5/3 93/5/3
f 97/2/3 93/2/3 92/2/3
f 97/5/3 95/5/3 94/5/3
f 98/5/3 95/5/3 97/5/3
f 99/2/3 98/2/3 97/2/3
f 99/5/3 95/5/3 98/5/3
f 100/5/3 95/5/3 99/5/3
f 101/2/3 100/2/3 99/2/3
f 101/5/3 95/5/3 100/5/3
f 102/5/3 95/5/3 101/5/3
f 103/5/3 95/5/3 102/5/3
f 104/5/3 95/5/3 103/5/3
f 105/2/3 102/2/3 101/2/3
f 105/5/3 103/5/3 102/5/3
f 106/5/3 103/5/3 105/5/3
f 107/5/3 95/5/3 104/5/3
f 107/2/3 104/2/3 103/2/3
f 108/5/3 95/5/3 107/5/3
f 109/5/3 103/5/3 106/5/3
f 109/2/3 106/2/3 105/2/3
f 110/5/3 103/5/3 109/5/3
f 111/5/3 95/5/3 108/5/3
f 111/2/3 108/2/3 107/2/3
f 112/5/3 95/5/3 111/5/3
f 113/5/3 103/5/3 110/5/3
f 113/2/3 110/2/3 109/2/3
f 114/2/3 112/2/3 111/2/3
f 114/5/3 103/5/3 113/5/3
f 114/2/3 107/2/3 103/2/3
f 114/2/3 111/2/3 107/2/3
f 115/5/3 95/5/3 112/5/3
f 115/2/3 112/2/3 114/2/3
f 116/5/3 95/5/3 115/5/3
f 117/2/3 114/2/3 113/2/3
f 117/5/3 95/5/3 116/5/3
f 117/2/3 116/2/3 115/2/3
f 117/2/3 115/2/3 114/2/3
f 118/5/3 95/5/3 117/5/3
f 119/2/3 118/2/3 117/2/3
f 119/5/3 95/5/3 118/5/3
f 120/5/3 95/5/3 119/5/3
f 121/2/3 119/2/3 117/2/3
f 121/2/3 120/2/3 119/2/3
f 122/5/3 95/5/3 120/5/3
f 122/2/3 120/2/3 121/2/3
f 123/2/3 117/2/3 113/2/3
f 123/2/3 121/2/3 117/2/3
f 124/5/3 122/5/3 121/5/3
f 124/2/3 121/2/3 123/2/3
f 125/2/3 123/2/3 113/2/3
f 126/5/3 124/5/3 123/5/3
f 126/2/3 123/2/3 125/2/3
f 127/2/3 113/2/3 109/2/3
f 127/2/3 125/2/3 113/2/3
f 128/2/3 125/2/3 127/2/3
f 129/2/3 125/2/3 128/2/3
f 130/5/3 126/5/3 125/5/3
f 130/2/3 125/2/3 129/2/3
f 131/2/3 109/2/3 105/2/3
f 131/2/3 127/2/3 109/2/3
f 132/5/3 128/5/3 127/5/3
f 132/2/3 127/2/3 131/2/3
f 133/2/3 129/2/3 128/2/3
f 134/5/3 130/5/3 129/5/3
f 134/2/3 129/2/3 133/2/3
f 135/2/3 105/2/3 101/2/3
f 135/2/3 131/2/3 105/2/3
f 136/5/3 132/5/3 131/5/3
f 136/2/3 131/2/3 135/2/3
f 137/5/3 128/5/3 132/5/3
f 137/5/3 132/5/3 136/5/3
f 137/2/3 133/2/3 128/2/3
f 138/5/3 134/5/3 133/5/3
f 138/2/3 133/2/3 137/2/3
f 139/2/3 101/2/3 99/2/3
f 139/2/3 135/2/3 101/2/3
f 140/5/3 136/5/3 135/5/3
f 140/2/3 135/2/3 139/2/3
f 140/5/3 138/5/3 137/5/3
f 140/5/3 137/5/3 136/5/3
f 141/2/3 99/2/3 97/2/3
f 141/2/3 139/2/3 99/2/3
f 142/5/3 140/5/3 139/5/3
f 142/2/3 139/2/3 141/2/3
f 143/2/3 97/2/3 92/2/3
f 143/2/3 141/2/3 97/2/3
f 144/5/3 142/5/3 141/5/3
f 144/2/3 141/2/3 143/2/3
f 145/5/3 140/5/3 142/5/3
f 145/5/3 142/5/3 144/5/3
f 145/5/3 138/5/3 140/5/3
f 145/5/3 134/5/3 138/5/3
f 145/5/3 122/5/3 124/5/3
f 145/5/3 95/5/3 122/5/3
f 145/5/3 130/5/3 134/5/3
f 145/5/3 124/5/3 126/5/3
f 145/5/3 126/5/3 130/5/3
f 146/1/3 96/1/3 95/1/3
f 146/5/3 95/5/3 145/5/3
f 147/3/3 72/3/3 96/3/3
f 147/1/3 96/1/3 146/1/3
f 148/2/3 92/2/3 90/2/3
f 148/2/3 143/2/3 92/2/3
f 149/5/3 145/5/3 144/5/3
f 149/2/3 143/2/3 148/2/3
f 149/5/3 144/5/3 143/5/3
f 150/3/3 72/3/3 147/3/3
f 150/3/3 147/3/3 146/3/3
f 151/3/3 72/3/3 150/3/3
f 152/2/3 148/2/3 90/2/3
f 152/2/3 90/2/3 83/2/3
f 153/5/3 149/5/3 148/5/3
f 153/2/3 148/2/3 152/2/3
f 154/5/3 145/5/3 149/5/3
f 154/5/3 149/5/3 153/5/3
f 155/1/3 146/1/3 145/1/3
f 155/5/3 145/5/3 154/5/3
f 156/3/3 150/3/3 146/3/3
f 156/1/3 146/1/3 155/1/3
f 157/2/3 152/2/3 83/2/3
f 158/2/3 152/2/3 157/2/3
f 159/5/3 154/5/3 153/5/3
f 159/2/3 152/2/3 158/2/3
f 159/5/3 153/5/3 152/5/3
f 160/5/3 159/5/3 158/5/3
f 160/5/3 154/5/3 159/5/3
f 161/1/3 155/1/3 154/1/3
f 161/5/3 154/5/3 160/5/3
f 162/3/3 156/3/3 155/3/3
f 162/1/3 155/1/3 161/1/3
f 163/3/3 150/3/3 156/3/3
f 163/3/3 156/3/3 162/3/3
f 164/4/3 151/4/3 150/4/3
f 164/3/3 150/3/3 163/3/3
f 165/4/3 151/4/3 164/4/3
f 166/5/3 160/5/3 158/5/3
f 167/1/3 161/1/3 160/1/3
f 167/5/3 160/5/3 166/5/3
f 168/1/3 161/1/3 167/1/3
f 169/3/3 163/3/3 162/3/3
f 169/1/3 161/1/3 168/1/3
f 169/3/3 162/3/3 161/3/3
f 170/6/3 158/6/3 157/6/3
f 171/5/3 166/5/3 158/5/3
f 171/6/3 158/6/3 170/6/3
f 172/1/3 168/1/3 167/1/3
f 172/5/3 166/5/3 171/5/3
f 172/1/3 167/1/3 166/1/3
f 173/1/3 168/1/3 172/1/3
f 174/3/3 169/3/3 168/3/3
f 174/1/3 168/1/3 173/1/3
f 175/3/3 163/3/3 169/3/3
f 175/3/3 169/3/3 174/3/3
f 176/4/3 164/4/3 163/4/3
f 176/3/3 163/3/3 175/3/3
f 177/4/3 164/4/3 176/4/3
f 178/1/3 171/1/3 170/1/3
f 178/1/3 173/1/3 172/1/3
f 178/1/3 172/1/3 171/1/3
f 179/3/3 174/3/3 173/3/3
f 179/1/3 173/1/3 178/1/3
f 179/3/3 175/3/3 174/3/3
f 180/3/3 175/3/3 179/3/3
f 181/3/3 175/3/3 180/3/3
f 182/3/3 179/3/3 178/3/3
f 182/3/3 180/3/3 179/3/3
f 183/3/3 180/3/3 182/3/3
f 184/3/3 182/3/3 178/3/3
f 185/3/3 182/3/3 184/3/3
f 186/4/4 187/4/4 188/4/4
f 188/4/4 187/4/4 189/4/4
f 189/4/4 187/4/4 190/4/4
f 188/3/4 189/3/4 192/3/4
f 190/4/4 191/4/4 192/4/4
f 189/4/4 190/4/4 192/4/4
f 192/4/4 191/4/4 193/4/4
f 193/4/4 191/4/4 194/4/4
f 188/3/4 192/3/4 196/3/4
f 192/3/4 193/3/4 196/3/4
f 196/3/4 193/3/4 197/3/4
f 194/4/4 195/4/4 198/4/4
f 197/3/4 193/3/4 198/3/4
f 193/4/4 194/4/4 198/4/4
f 198/4/4 195/4/4 199/4/4
f 197/3/4 198/3/4 200/3/4
f 198/3/4 199/3/4 200/3/4
f 196/1/4 197/1/4 202/1/4
f 202/1/4 197/1/4 203/1/4
f 200/3/4 201/3/4 204/3/4
f 203/1/4 197/1/4 204/1/4
f 197/3/4 200/3/4 204/3/4
f 204/3/4 201/3/4 205/3/4
f 202/5/4 203/5/4 206/5/4
f 206/5/4 203/5/4 207/5/4
f 203/1/4 204/1/4 208/1/4
f 207/5/4 203/5/4 208/5/4
f 204/1/4 205/1/4 208/1/4
f 208/1/4 205/1/4 209/1/4
f 209/1/4 205/1/4 210/1/4
f 210/1/4 205/1/4 211/1/4
f 205/3/4 201/3/4 212/3/4
f 211/1/4 205/1/4 212/1/4
f 212/3/4 201/3/4 213/3/4
f 213/3/4 201/3/4 214/3/4
f 207/5/4 208/5/4 216/5/4
f 208/5/4 209/5/4 216/5/4
f 209/1/4 210/1/4 216/1/4
f 216/1/4 210/1/4 217/1/4
f 210/5/4 211/5/4 218/5/4
f 217/1/4 210/1/4 218/1/4
f 212/1/4 213/1/4 219/1/4
f 218/5/4 211/5/4 219/5/4
f 211/1/4 212/1/4 219/1/4
f 219/1/4 213/1/4 220/1/4
f 220/1/4 213/1/4 221/1/4
f 214/3/4 215/3/4 222/3/4
f 221/1/4 213/1/4 222/1/4
f 213/3/4 214/3/4 222/3/4
f 222/3/4 215/3/4 223/3/4
f 216/5/4 217/5/4 224/5/4
f 219/1/4 220/1/4 224/1/4
f 217/1/4 218/1/4 224/1/4
f 218/1/4 219/1/4 224/1/4
f 220/5/4 221/5/4 225/5/4
f 224/1/4 220/1/4 225/1/4
f 206/6/4 207/6/4 226/6/4
f 216/5/4 224/5/4 227/5/4
f 226/6/4 207/6/4 227/6/4
f 207/5/4 216/5/4 227/5/4
f 224/5/4 225/5/4 227/5/4
f 227/5/4 225/5/4 228/5/4
f 225/5/4 221/5/4 229/5/4
f 228/5/4 225/5/4 229/5/4
f 222/1/4 223/1/4 229/1/4
f 221/1/4 222/1/4 229/1/4
f 229/1/4 223/1/4 230/1/4
f 223/3/4 215/3/4 231/3/4
f 230/1/4 223/1/4 231/1/4
f 231/3/4 215/3/4 232/3/4
f 229/5/4 230/5/4 233/5/4
f 227/2/4 228/2/4 233/2/4
f 226/2/4 227/2/4 233/2/4
f 228/5/4 229/5/4 233/5/4
f 233/5/4 230/5/4 234/5/4
f 233/2/4 234/2/4 235/2/4
f 234/5/4 230/5/4 235/5/4
f 235/5/4 230/5/4 236/5/4
f 231/1/4 232/1/4 237/1/4
f 236/5/4 230/5/4 237/5/4
f 230/1/4 231/1/4 237/1/4
f 232/3/4 215/3/4 238/3/4
f 237/1/4 232/1/4 238/1/4
f 238/3/4 215/3/4 239/3/4
f 236/5/4 237/5/4 240/5/4
f 235/2/4 236/2/4 240/2/4
f 237/5/4 238/5/4 240/5/4
f 240/5/4 238/5/4 241/5/4
f 240/2/4 241/2/4 242/2/4
f 241/5/4 238/5/4 242/5/4
f 242/5/4 238/5/4 243/5/4
f 242/2/4 243/2/4 244/2/4
f 243/5/4 238/5/4 244/5/4
f 244/5/4 238/5/4 245/5/4
f 245/5/4 238/5/4 246/5/4
f 246/5/4 238/5/4 247/5/4
f 244/2/4 245/2/4 248/2/4
f 245/5/4 246/5/4 248/5/4
f 248/5/4 246/5/4 249/5/4
f 247/5/4 238/5/4 250/5/4
f 246/2/4 247/2/4 250/2/4
f 250/5/4 238/5/4 251/5/4
f 249/5/4 246/5/4 252/5/4
f 248/2/4 249/2/4 252/2/4
f 252/5/4 246/5/4 253/5/4
f 251/5/4 238/5/4 254/5/4
f 250/2/4 251/2/4 254/2/4
f 254/5/4 238/5/4 255/5/4
f 253/5/4 246/5/4 256/5/4
f 252/2/4 253/2/4 256/2/4
f 254/2/4 255/2/4 257/2/4
f 256/5/4 246/5/4 257/5/4
f 246/2/4 250/2/4 257/2/4
f 250/2/4 254/2/4 257/2/4
f 255/5/4 238/5/4 258/5/4
f 257/2/4 255/2/4 258/2/4
f 258/5/4 238/5/4 259/5/4
f 256/2/4 257/2/4 260/2/4
f 259/5/4 238/5/4 260/5/4
f 258/2/4 259/2/4 260/2/4
f 257/2/4 258/2/4 260/2/4
f 260/5/4 238/5/4 261/5/4
f 260/2/4 261/2/4 262/2/4
f 261/5/4 238/5/4 262/5/4
f 262/5/4 238/5/4 263/5/4
f 260/2/4 262/2/4 264/2/4
f 262/2/4 263/2/4 264/2/4
f 263/5/4 238/5/4 265/5/4
f 264/2/4 263/2/4 265/2/4
f 256/2/4 260/2/4 266/2/4
f 260/2/4 264/2/4 266/2/4
f 264/5/4 265/5/4 267/5/4
f 266/2/4 264/2/4 267/2/4
f 256/2/4 266/2/4 268/2/4
f 266/5/4 267/5/4 269/5/4
f 268/2/4 266/2/4 269/2/4
f 252/2/4 256/2/4 270/2/4
f 256/2/4 268/2/4 270/2/4
f 270/2/4 268/2/4 271/2/4
f 271/2/4 268/2/4 272/2/4
f 268/5/4 269/5/4 273/5/4
f 272/2/4 268/2/4 273/2/4
f 248/2/4 252/2/4 274/2/4
f 252/2/4 270/2/4 274/2/4
f 270/5/4 271/5/4 275/5/4
f 274/2/4 270/2/4 275/2/4
f 271/2/4 272/2/4 276/2/4
f 272/5/4 273/5/4 277/5/4
f 276/2/4 272/2/4 277/2/4
f 244/2/4 248/2/4 278/2/4
f 248/2/4 274/2/4 278/2/4
f 274/5/4 275/5/4 279/5/4
f 278/2/4 274/2/4 279/2/4
f 275/5/4 271/5/4 280/5/4
f 279/5/4 275/5/4 280/5/4
f 271/2/4 276/2/4 280/2/4
f 276/5/4 277/5/4 281/5/4
f 280/2/4 276/2/4 281/2/4
f 242/2/4 244/2/4 282/2/4
f 244/2/4 278/2/4 282/2/4
f 278/5/4 279/5/4 283/5/4
f 282/2/4 278/2/4 283/2/4
f 280/5/4 281/5/4 283/5/4
f 279/5/4 280/5/4 283/5/4
f 240/2/4 242/2/4 284/2/4
f 242/2/4 282/2/4 284/2/4
f 282/5/4 283/5/4 285/5/4
f 284/2/4 282/2/4 285/2/4
f 235/2/4 240/2/4 286/2/4
f 240/2/4 284/2/4 286/2/4
f 284/5/4 285/5/4 287/5/4
f 286/2/4 284/2/4 287/2/4
f 285/5/4 283/5/4 288/5/4
f 287/5/4 285/5/4 288/5/4
f 283/5/4 281/5/4 288/5/4
f 281/5/4 277/5/4 288/5/4
f 267/5/4 265/5/4 288/5/4
f 265/5/4 238/5/4 288/5/4
f 277/5/4 273/5/4 288/5/4
f 269/5/4 267/5/4 288/5/4
f 273/5/4 269/5/4 288/5/4
f 238/1/4 239/1/4 289/1/4
f 288/5/4 238/5/4 289/5/4
f 239/3/4 215/3/4 290/3/4
f 289/1/4 239/1/4 290/1/4
f 233/2/4 235/2/4 291/2/4
f 235/2/4 286/2/4 291/2/4
f 287/5/4 288/5/4 292/5/4
f 291/2/4 286/2/4 292/2/4
f 286/5/4 287/5/4 292/5/4
f 290/3/4 215/3/4 293/3/4
f 289/3/4 290/3/4 293/3/4
f 293/3/4 215/3/4 294/3/4
f 233/2/4 291/2/4 295/2/4
f 226/2/4 233/2/4 295/2/4
f 291/5/4 292/5/4 296/5/4
f 295/2/4 291/2/4 296/2/4
f 292/5/4 288/5/4 297/5/4
f 296/5/4 292/5/4 297/5/4
f 288/1/4 289/1/4 298/1/4
f 297/5/4 288/5/4 298/5/4
f 289/3/4 293/3/4 299/3/4
f 298/1/4 289/1/4 299/1/4
f 226/2/4 295/2/4 300/2/4
f 300/2/4 295/2/4 301/2/4
f 296/5/4 297/5/4 302/5/4
f 301/2/4 295/2/4 302/2/4
f 295/5/4 296/5/4 302/5/4
f 301/5/4 302/5/4 303/5/4
f 302/5/4 297/5/4 303/5/4
f 297/1/4 298/1/4 304/1/4
f 303/5/4 297/5/4 304/5/4
f 298/3/4 299/3/4 305/3/4
f 304/1/4 298/1/4 305/1/4
f 299/3/4 293/3/4 306/3/4
f 305/3/4 299/3/4 306/3/4
f 293/4/4 294/4/4 307/4/4
f 306/3/4 293/3/4 307/3/4
f 307/4/4 294/4/4 308/4/4
f 301/5/4 303/5/4 309/5/4
f 303/1/4 304/1/4 310/1/4
f 309/5/4 303/5/4 310/5/4
f 310/1/4 304/1/4 311/1/4
f 305/3/4 306/3/4 312/3/4
f 311/1/4 304/1/4 312/1/4
f 304/3/4 305/3/4 312/3/4
f 300/6/4 301/6/4 313/6/4
f 301/5/4 309/5/4 314/5/4
f 313/6/4 301/6/4 314/6/4
f 310/1/4 311/1/4 315/1/4
f 314/5/4 309/5/4 315/5/4
f 309/1/4 310/1/4 315/1/4
f 315/1/4 311/1/4 316/1/4
f 311/3/4 312/3/4 317/3/4
f 316/1/4 311/1/4 317/1/4
f 312/3/4 306/3/4 318/3/4
f 317/3/4 312/3/4 318/3/4
f 306/4/4 307/4/4 319/4/4
f 318/3/4 306/3/4 319/3/4
f 319/4/4 307/4/4 320/4/4
f 313/1/4 314/1/4 321/1/4
f 315/1/4 316/1/4 321/1/4
f 314/1/4 315/1/4 321/1/4
f 316/3/4 317/3/4 322/3/4
f 321/1/4 316/1/4 322/1/4
f 317/3/4 318/3/4 322/3/4
f 322/3/4 318/3/4 323/3/4
f 323/3/4 318/3/4 324/3/4
f 321/3/4 322/3/4 325/3/4
f 322/3/4 323/3/4 325/3/4
f 325/3/4 323/3/4 326/3/4
f 321/3/4 325/3/4 327/3/4
f 327/3/4 325/3/4 328/3/4
f 339/4/5 330/4/5 329/4/5
f 340/3/5 331/3/5 330/3/5
f 340/4/5 330/4/5 339/4/5
f 341/1/5 332/1/5 331/1/5
f 341/3/5 331/3/5 340/3/5
f 342/5/5 333/5/5 332/5/5
f 342/1/5 332/1/5 341/1/5
f 343/6/5 334/6/5 333/6/5
f 343/5/5 333/5/5 342/5/5
f 344/2/5 335/2/5 334/2/5
f 344/6/5 334/6/5 343/6/5
f 345/6/5 336/6/5 335/6/5
f 345/2/5 335/2/5 344/2/5
f 346/1/5 337/1/5 336/1/5
f 346/6/5 336/6/5 345/6/5
f 347/3/5 338/3/5 337/3/5
f 347/1/5 337/1/5 346/1/5
f 348/3/5 338/3/5 347/3/5
f 349/4/6 350/4/6 353/4/6
f 353/4/6 350/4/6 354/4/6
f 351/3/6 352/3/6 355/3/6
f 355/3/6 352/3/6 356/3/6
f 357/4/6 358/4/6 361/4/6
f 361/4/6 358/4/6 362/4/6
f 359/3/6 360/3/6 363/3/6
f 363/3/6 360/3/6 364/3/6
f 365/4/6 366/4/6 370/4/6
f 366/3/6 367/3/6 371/3/6
f 370/4/6 366/4/6 371/4/6
f 371/3/6 367/3/6 372/3/6
f 368/3/6 369/3/6 373/3/6
f 373/3/6 369/3/6 374/3/6
f 375/3/6 376/3/6 379/3/6
f 379/3/6 376/3/6 380/3/6
f 377/4/6 378/4/6 381/4/6
f 381/4/6 378/4/6 382/4/6
f 383/3/6 384/3/6 386/3/6
f 384/4/6 385/4/6 387/4/6
f 386/3/6 384/3/6 387/3/6
f 387/4/6 385/4/6 388/4/6
